<?xml version="1.0" encoding="utf-8"?>
<svg xmlns="http://www.w3.org/2000/svg" viewBox="0 0 100 35" xmlns:bx="https://boxy-svg.com">
  <defs>
    <linearGradient id="gradient-1" bx:pinned="true"/>
  </defs>
  <path style="stroke: rgb(0, 0, 0); fill: rgb(180, 92, 59);" d="M 4.438 12.233 L 4.693 19.091 L 8.73 25.202 L 13.174 28.374 L 20.26 27.997 L 26.978 24.348 L 29.09 18.351 L 29.848 11.891 L 24.538 15.588 L 17.651 17.232 L 11.257 15.918 L 7.006 14.114 L 4.438 12.233 Z"/>
  <path style="stroke: rgb(0, 0, 0); fill: rgb(133, 70, 45);" d="M 4.055 11.822 L 6.783 9.141 L 11.277 6.96 L 16.384 6.22 L 21.143 6.63 L 25.423 7.74 L 28.053 9.062 L 30.146 11.097 L 24.75 14.907 L 17.773 16.967 L 11.403 15.617 L 7.204 13.788 L 4.055 11.822 Z"/>
  <path style="stroke: rgb(0, 0, 0); fill: rgb(154, 87, 61);" d="M 30.075 13.261 L 32.907 13.263 L 35.826 14.738 L 38.433 17.417 L 36.502 21.114 L 32.893 22.372 L 28.538 22.686 L 29.018 19.865 L 32.683 19.469 L 35.144 17.978 L 33.311 15.797 L 29.449 15.797 L 30.075 13.261 Z"/>
  <path style="fill: rgb(105, 57, 38);" d="M 11.68 15.206 L 9.128 14.091 L 12.004 12.003 L 15.962 10.537 L 20.433 11.206 L 22.975 12.718 L 24.493 14.647 L 17.676 16.439 L 11.68 15.206 Z"/>
  <path style="fill: rgb(208, 109, 72);" d="M 11.781 16.594 L 12.064 26.952 L 13.285 27.866 L 20.24 27.512 L 21.873 26.511 L 21.222 16.899 L 17.694 17.751 L 11.781 16.594 Z"/>
  <text style="fill: rgb(133, 70, 45); font-family: Verdana; font-size: 28px; font-weight: 700; text-transform: uppercase; white-space: pre;" transform="matrix(0.339869, 0, 0, 0.491107, -14.291932, -87.677673)" x="168.862" y="224.714">Moddery</text>
</svg>