<?xml version="1.0" encoding="utf-8"?>
<svg xmlns="http://www.w3.org/2000/svg" viewBox="0 0 500 500" xmlns:bx="https://boxy-svg.com">
  <defs>
    <linearGradient id="gradient-1" bx:pinned="true"/>
  </defs>
  <path style="stroke: rgb(0, 0, 0); fill: rgb(180, 92, 59);" d="M 127.647 217.323 L 127.902 224.181 L 131.939 230.292 L 136.383 233.464 L 143.469 233.087 L 150.187 229.438 L 152.299 223.441 L 153.057 216.981 L 147.747 220.678 L 140.86 222.322 L 134.466 221.008 L 130.215 219.204 L 127.647 217.323 Z"/>
  <path style="stroke: rgb(0, 0, 0); fill: rgb(133, 70, 45);" d="M 127.264 216.912 L 129.992 214.231 L 134.486 212.05 L 139.593 211.31 L 144.352 211.72 L 148.632 212.83 L 151.262 214.152 L 153.355 216.187 L 147.959 219.997 L 140.982 222.057 L 134.612 220.707 L 130.413 218.878 L 127.264 216.912 Z"/>
  <path style="stroke: rgb(0, 0, 0); fill: rgb(154, 87, 61);" d="M 153.284 218.351 L 156.116 218.353 L 159.035 219.828 L 161.642 222.507 L 159.711 226.204 L 156.102 227.462 L 151.747 227.776 L 152.227 224.955 L 155.892 224.559 L 158.353 223.068 L 156.52 220.887 L 152.658 220.887 L 153.284 218.351 Z"/>
  <path style="fill: rgb(105, 57, 38);" d="M 134.889 220.296 L 132.337 219.181 L 135.213 217.093 L 139.171 215.627 L 143.642 216.296 L 146.184 217.808 L 147.702 219.737 L 140.885 221.529 L 134.889 220.296 Z"/>
  <path style="fill: rgb(208, 109, 72);" d="M 134.99 221.684 L 135.273 232.042 L 136.494 232.956 L 143.449 232.602 L 145.082 231.601 L 144.431 221.989 L 140.903 222.841 L 134.99 221.684 Z"/>
  <text style="fill: rgb(133, 70, 45); font-family: Verdana; font-size: 28px; font-weight: 700; text-transform: uppercase; white-space: pre;" transform="matrix(0.339869, 0, 0, 0.491107, 108.916824, 117.413025)" x="168.862" y="224.714">Moddery</text>
</svg>